<mxfile host="app.diagrams.net" modified="2023-06-18T09:10:41.876Z" agent="Mozilla/5.0 (Windows NT 10.0; Win64; x64) AppleWebKit/537.36 (KHTML, like Gecko) Chrome/114.0.0.0 Safari/537.36" etag="64gAEazunhfuJXHKUPPg" version="21.3.7" type="device">
  <diagram name="Page-1" id="2YBvvXClWsGukQMizWep">
    <mxGraphModel dx="1434" dy="764" grid="1" gridSize="10" guides="1" tooltips="1" connect="1" arrows="1" fold="1" page="1" pageScale="1" pageWidth="850" pageHeight="1100" math="0" shadow="0">
      <root>
        <mxCell id="0" />
        <mxCell id="1" parent="0" />
        <mxCell id="E83_g_-iS7J6HBkElXjf-15" value="" style="rounded=0;whiteSpace=wrap;html=1;" parent="1" vertex="1">
          <mxGeometry x="70" y="300" width="220" height="150" as="geometry" />
        </mxCell>
        <mxCell id="E83_g_-iS7J6HBkElXjf-7" value="" style="rounded=0;whiteSpace=wrap;html=1;" parent="1" vertex="1">
          <mxGeometry x="70" y="125" width="220" height="130" as="geometry" />
        </mxCell>
        <mxCell id="aM9ryv3xv72pqoxQDRHE-1" value="Machine Learning" style="shape=umlLifeline;perimeter=lifelinePerimeter;whiteSpace=wrap;html=1;container=0;dropTarget=0;collapsible=0;recursiveResize=0;outlineConnect=0;portConstraint=eastwest;newEdgeStyle={&quot;edgeStyle&quot;:&quot;elbowEdgeStyle&quot;,&quot;elbow&quot;:&quot;vertical&quot;,&quot;curved&quot;:0,&quot;rounded&quot;:0};" parent="1" vertex="1">
          <mxGeometry x="40" y="40" width="100" height="440" as="geometry" />
        </mxCell>
        <mxCell id="aM9ryv3xv72pqoxQDRHE-4" value="" style="html=1;points=[];perimeter=orthogonalPerimeter;outlineConnect=0;targetShapes=umlLifeline;portConstraint=eastwest;newEdgeStyle={&quot;edgeStyle&quot;:&quot;elbowEdgeStyle&quot;,&quot;elbow&quot;:&quot;vertical&quot;,&quot;curved&quot;:0,&quot;rounded&quot;:0};" parent="aM9ryv3xv72pqoxQDRHE-1" vertex="1">
          <mxGeometry x="46" y="130" width="10" height="70" as="geometry" />
        </mxCell>
        <mxCell id="aM9ryv3xv72pqoxQDRHE-5" value="HDFS" style="shape=umlLifeline;perimeter=lifelinePerimeter;whiteSpace=wrap;html=1;container=0;dropTarget=0;collapsible=0;recursiveResize=0;outlineConnect=0;portConstraint=eastwest;newEdgeStyle={&quot;edgeStyle&quot;:&quot;elbowEdgeStyle&quot;,&quot;elbow&quot;:&quot;vertical&quot;,&quot;curved&quot;:0,&quot;rounded&quot;:0};" parent="1" vertex="1">
          <mxGeometry x="220" y="40" width="100" height="440" as="geometry" />
        </mxCell>
        <mxCell id="aM9ryv3xv72pqoxQDRHE-9" value="3. 적재된 이미지를 통해 model 학습" style="html=1;verticalAlign=bottom;endArrow=block;edgeStyle=elbowEdgeStyle;elbow=vertical;curved=0;rounded=0;" parent="1" edge="1">
          <mxGeometry relative="1" as="geometry">
            <mxPoint x="269.5" y="170" as="sourcePoint" />
            <Array as="points" />
            <mxPoint x="96" y="170" as="targetPoint" />
          </mxGeometry>
        </mxCell>
        <mxCell id="E83_g_-iS7J6HBkElXjf-1" value="Apache Flume" style="shape=umlLifeline;perimeter=lifelinePerimeter;whiteSpace=wrap;html=1;container=0;dropTarget=0;collapsible=0;recursiveResize=0;outlineConnect=0;portConstraint=eastwest;newEdgeStyle={&quot;edgeStyle&quot;:&quot;elbowEdgeStyle&quot;,&quot;elbow&quot;:&quot;vertical&quot;,&quot;curved&quot;:0,&quot;rounded&quot;:0};" parent="1" vertex="1">
          <mxGeometry x="400" y="40" width="100" height="440" as="geometry" />
        </mxCell>
        <mxCell id="E83_g_-iS7J6HBkElXjf-2" value="" style="html=1;points=[];perimeter=orthogonalPerimeter;outlineConnect=0;targetShapes=umlLifeline;portConstraint=eastwest;newEdgeStyle={&quot;edgeStyle&quot;:&quot;elbowEdgeStyle&quot;,&quot;elbow&quot;:&quot;vertical&quot;,&quot;curved&quot;:0,&quot;rounded&quot;:0};" parent="E83_g_-iS7J6HBkElXjf-1" vertex="1">
          <mxGeometry x="45" y="80" width="10" height="60" as="geometry" />
        </mxCell>
        <mxCell id="E83_g_-iS7J6HBkElXjf-3" value="Local Storage" style="shape=umlLifeline;perimeter=lifelinePerimeter;whiteSpace=wrap;html=1;container=0;dropTarget=0;collapsible=0;recursiveResize=0;outlineConnect=0;portConstraint=eastwest;newEdgeStyle={&quot;edgeStyle&quot;:&quot;elbowEdgeStyle&quot;,&quot;elbow&quot;:&quot;vertical&quot;,&quot;curved&quot;:0,&quot;rounded&quot;:0};" parent="1" vertex="1">
          <mxGeometry x="580" y="40" width="100" height="440" as="geometry" />
        </mxCell>
        <mxCell id="E83_g_-iS7J6HBkElXjf-4" value="" style="html=1;points=[];perimeter=orthogonalPerimeter;outlineConnect=0;targetShapes=umlLifeline;portConstraint=eastwest;newEdgeStyle={&quot;edgeStyle&quot;:&quot;elbowEdgeStyle&quot;,&quot;elbow&quot;:&quot;vertical&quot;,&quot;curved&quot;:0,&quot;rounded&quot;:0};" parent="E83_g_-iS7J6HBkElXjf-3" vertex="1">
          <mxGeometry x="45" y="80" width="10" height="60" as="geometry" />
        </mxCell>
        <mxCell id="E83_g_-iS7J6HBkElXjf-5" value="1. Flume 실행" style="html=1;verticalAlign=bottom;endArrow=block;edgeStyle=elbowEdgeStyle;elbow=vertical;curved=0;rounded=0;" parent="1" source="E83_g_-iS7J6HBkElXjf-4" target="E83_g_-iS7J6HBkElXjf-2" edge="1">
          <mxGeometry relative="1" as="geometry">
            <mxPoint x="623" y="120" as="sourcePoint" />
            <Array as="points">
              <mxPoint x="548" y="120" />
            </Array>
            <mxPoint x="458" y="120" as="targetPoint" />
          </mxGeometry>
        </mxCell>
        <mxCell id="E83_g_-iS7J6HBkElXjf-6" value="2. HDFS에 이미지 적재" style="html=1;verticalAlign=bottom;endArrow=block;edgeStyle=elbowEdgeStyle;elbow=vertical;curved=0;rounded=0;" parent="1" source="E83_g_-iS7J6HBkElXjf-2" edge="1">
          <mxGeometry relative="1" as="geometry">
            <mxPoint x="440" y="140" as="sourcePoint" />
            <Array as="points">
              <mxPoint x="363" y="140" />
            </Array>
            <mxPoint x="275" y="140" as="targetPoint" />
          </mxGeometry>
        </mxCell>
        <mxCell id="E83_g_-iS7J6HBkElXjf-10" value="4. model을 HDFS에 적재" style="html=1;verticalAlign=bottom;endArrow=block;edgeStyle=elbowEdgeStyle;elbow=vertical;curved=0;rounded=0;" parent="1" edge="1">
          <mxGeometry relative="1" as="geometry">
            <mxPoint x="96" y="240" as="sourcePoint" />
            <Array as="points" />
            <mxPoint x="269.5" y="240" as="targetPoint" />
          </mxGeometry>
        </mxCell>
        <mxCell id="E83_g_-iS7J6HBkElXjf-12" value="model 갱신/재학습" style="rounded=0;whiteSpace=wrap;html=1;" parent="1" vertex="1">
          <mxGeometry x="70" y="125" width="120" height="20" as="geometry" />
        </mxCell>
        <mxCell id="E83_g_-iS7J6HBkElXjf-16" value="" style="html=1;points=[];perimeter=orthogonalPerimeter;outlineConnect=0;targetShapes=umlLifeline;portConstraint=eastwest;newEdgeStyle={&quot;edgeStyle&quot;:&quot;elbowEdgeStyle&quot;,&quot;elbow&quot;:&quot;vertical&quot;,&quot;curved&quot;:0,&quot;rounded&quot;:0};" parent="1" vertex="1">
          <mxGeometry x="86" y="345" width="10" height="95" as="geometry" />
        </mxCell>
        <mxCell id="E83_g_-iS7J6HBkElXjf-17" value="5. HDFS에 적재된 모델 load" style="html=1;verticalAlign=bottom;endArrow=block;edgeStyle=elbowEdgeStyle;elbow=vertical;curved=0;rounded=0;" parent="1" edge="1">
          <mxGeometry relative="1" as="geometry">
            <mxPoint x="269.5" y="345" as="sourcePoint" />
            <Array as="points" />
            <mxPoint x="96" y="345" as="targetPoint" />
          </mxGeometry>
        </mxCell>
        <mxCell id="E83_g_-iS7J6HBkElXjf-18" value="6. test 결과 리턴" style="html=1;verticalAlign=bottom;endArrow=block;edgeStyle=elbowEdgeStyle;elbow=vertical;curved=0;rounded=0;" parent="1" edge="1">
          <mxGeometry relative="1" as="geometry">
            <mxPoint x="96" y="424" as="sourcePoint" />
            <Array as="points" />
            <mxPoint x="269.5" y="424" as="targetPoint" />
          </mxGeometry>
        </mxCell>
        <mxCell id="E83_g_-iS7J6HBkElXjf-19" value="model test" style="rounded=0;whiteSpace=wrap;html=1;" parent="1" vertex="1">
          <mxGeometry x="70" y="300" width="120" height="20" as="geometry" />
        </mxCell>
        <mxCell id="E83_g_-iS7J6HBkElXjf-20" value="5. HDFS에 적재된 test 이미지 load" style="html=1;verticalAlign=bottom;endArrow=block;edgeStyle=elbowEdgeStyle;elbow=vertical;curved=0;rounded=0;" parent="1" edge="1">
          <mxGeometry relative="1" as="geometry">
            <mxPoint x="269.5" y="390" as="sourcePoint" />
            <Array as="points" />
            <mxPoint x="96" y="390" as="targetPoint" />
          </mxGeometry>
        </mxCell>
      </root>
    </mxGraphModel>
  </diagram>
</mxfile>
